# xmcd
#
# Track frame offsets:
#	150
#	13696
#	34713
#	45246
#	62858
#	80011
#	91845
#	103875
#	117339
#	133675
#
# Disc length: 1999 seconds
#
# Revision: 1
# Processed by: cddbd v1.5.2PL0 Copyright (c) Steve Scherf et al.
# Submitted via: audiograbber 1.82.01
#
DISCID=7e07cd0a
DTITLE=Hank Williams, Jr. - Greatest Hits Vol.1
DYEAR=1993
DGENRE=Country
TTITLE0=Family Tradition 
TTITLE1=Whiskey Bent And Hell Bound 
TTITLE2=Women I've Never Had 
TTITLE3=Old Habits 
TTITLE4=Kaw-Liga 
TTITLE5=Dixie On My Mind 
TTITLE6=Texas Women 
TTITLE7=The American Dream
TTITLE8=A Country Boy Can Survive
TTITLE9=All My Rowdy Friends (Have Settled Down) 
EXTD=
EXTT0=
EXTT1=
EXTT2=
EXTT3=
EXTT4=
EXTT5=
EXTT6=
EXTT7=
EXTT8=
EXTT9=
PLAYORDER=
